<mxfile host="app.diagrams.net" agent="Mozilla/5.0 (Windows NT 10.0; Win64; x64) AppleWebKit/537.36 (KHTML, like Gecko) Chrome/132.0.0.0 Safari/537.36" version="26.0.11">
  <diagram name="Page-1" id="o1Zil_M1nT_8jALx0jVQ">
    <mxGraphModel dx="792" dy="2211" grid="1" gridSize="10" guides="1" tooltips="1" connect="1" arrows="1" fold="1" page="1" pageScale="1" pageWidth="850" pageHeight="1100" math="0" shadow="0">
      <root>
        <mxCell id="0" />
        <mxCell id="1" parent="0" />
        <mxCell id="QU5J7ZY1o8B-Ze7e18x7-44" style="edgeStyle=orthogonalEdgeStyle;rounded=0;orthogonalLoop=1;jettySize=auto;html=1;exitX=0.005;exitY=0.63;exitDx=0;exitDy=0;exitPerimeter=0;entryX=0.5;entryY=0;entryDx=0;entryDy=0;" edge="1" parent="1" source="QU5J7ZY1o8B-Ze7e18x7-3" target="QU5J7ZY1o8B-Ze7e18x7-35">
          <mxGeometry relative="1" as="geometry" />
        </mxCell>
        <mxCell id="QU5J7ZY1o8B-Ze7e18x7-52" style="edgeStyle=orthogonalEdgeStyle;rounded=0;orthogonalLoop=1;jettySize=auto;html=1;exitX=0.9;exitY=0.2;exitDx=0;exitDy=0;exitPerimeter=0;entryX=1;entryY=0.5;entryDx=0;entryDy=0;" edge="1" parent="1" source="QU5J7ZY1o8B-Ze7e18x7-3" target="QU5J7ZY1o8B-Ze7e18x7-50">
          <mxGeometry relative="1" as="geometry" />
        </mxCell>
        <mxCell id="QU5J7ZY1o8B-Ze7e18x7-54" style="edgeStyle=orthogonalEdgeStyle;rounded=0;orthogonalLoop=1;jettySize=auto;html=1;exitX=0.5;exitY=1;exitDx=0;exitDy=0;exitPerimeter=0;entryX=0.5;entryY=0;entryDx=0;entryDy=0;" edge="1" parent="1" source="QU5J7ZY1o8B-Ze7e18x7-3" target="QU5J7ZY1o8B-Ze7e18x7-48">
          <mxGeometry relative="1" as="geometry" />
        </mxCell>
        <mxCell id="QU5J7ZY1o8B-Ze7e18x7-3" value="Kubernetes&lt;div&gt;&lt;br&gt;&lt;/div&gt;" style="aspect=fixed;sketch=0;html=1;dashed=0;whitespace=wrap;verticalLabelPosition=bottom;verticalAlign=top;fillColor=#2875E2;strokeColor=#ffffff;points=[[0.005,0.63,0],[0.1,0.2,0],[0.9,0.2,0],[0.5,0,0],[0.995,0.63,0],[0.72,0.99,0],[0.5,1,0],[0.28,0.99,0]];shape=mxgraph.kubernetes.icon2;prIcon=api" vertex="1" parent="1">
          <mxGeometry x="650" y="100" width="145.83" height="140" as="geometry" />
        </mxCell>
        <mxCell id="QU5J7ZY1o8B-Ze7e18x7-16" style="edgeStyle=orthogonalEdgeStyle;rounded=0;orthogonalLoop=1;jettySize=auto;html=1;exitX=1;exitY=0.25;exitDx=0;exitDy=0;entryX=0;entryY=0.5;entryDx=0;entryDy=0;" edge="1" parent="1" source="QU5J7ZY1o8B-Ze7e18x7-5" target="QU5J7ZY1o8B-Ze7e18x7-14">
          <mxGeometry relative="1" as="geometry" />
        </mxCell>
        <mxCell id="QU5J7ZY1o8B-Ze7e18x7-18" value="Kubernetes&lt;div&gt;Manifests Sync&lt;/div&gt;" style="edgeLabel;html=1;align=center;verticalAlign=middle;resizable=0;points=[];" vertex="1" connectable="0" parent="QU5J7ZY1o8B-Ze7e18x7-16">
          <mxGeometry x="-0.0052" y="-5" relative="1" as="geometry">
            <mxPoint x="-3" y="4" as="offset" />
          </mxGeometry>
        </mxCell>
        <mxCell id="QU5J7ZY1o8B-Ze7e18x7-57" style="edgeStyle=orthogonalEdgeStyle;rounded=0;orthogonalLoop=1;jettySize=auto;html=1;exitX=0.5;exitY=0;exitDx=0;exitDy=0;entryX=0.5;entryY=1;entryDx=0;entryDy=0;" edge="1" parent="1" source="QU5J7ZY1o8B-Ze7e18x7-5" target="QU5J7ZY1o8B-Ze7e18x7-55">
          <mxGeometry relative="1" as="geometry" />
        </mxCell>
        <mxCell id="QU5J7ZY1o8B-Ze7e18x7-63" value="Push" style="edgeLabel;html=1;align=center;verticalAlign=middle;resizable=0;points=[];" vertex="1" connectable="0" parent="QU5J7ZY1o8B-Ze7e18x7-57">
          <mxGeometry x="0.1383" y="-3" relative="1" as="geometry">
            <mxPoint as="offset" />
          </mxGeometry>
        </mxCell>
        <mxCell id="QU5J7ZY1o8B-Ze7e18x7-66" style="edgeStyle=orthogonalEdgeStyle;rounded=0;orthogonalLoop=1;jettySize=auto;html=1;exitX=0.75;exitY=0;exitDx=0;exitDy=0;" edge="1" parent="1" source="QU5J7ZY1o8B-Ze7e18x7-5" target="QU5J7ZY1o8B-Ze7e18x7-64">
          <mxGeometry relative="1" as="geometry">
            <Array as="points">
              <mxPoint x="263" y="-50" />
            </Array>
          </mxGeometry>
        </mxCell>
        <mxCell id="QU5J7ZY1o8B-Ze7e18x7-67" value="CI/CD" style="edgeLabel;html=1;align=center;verticalAlign=middle;resizable=0;points=[];" vertex="1" connectable="0" parent="QU5J7ZY1o8B-Ze7e18x7-66">
          <mxGeometry x="-0.1854" y="2" relative="1" as="geometry">
            <mxPoint as="offset" />
          </mxGeometry>
        </mxCell>
        <mxCell id="QU5J7ZY1o8B-Ze7e18x7-5" value="" style="rounded=0;whiteSpace=wrap;html=1;" vertex="1" parent="1">
          <mxGeometry x="100" y="10" width="217.6" height="170" as="geometry" />
        </mxCell>
        <mxCell id="QU5J7ZY1o8B-Ze7e18x7-4" value="source control&lt;div&gt;&lt;br&gt;&lt;/div&gt;" style="dashed=0;outlineConnect=0;html=1;align=center;labelPosition=center;verticalLabelPosition=bottom;verticalAlign=top;shape=mxgraph.webicons.github;gradientColor=#DFDEDE" vertex="1" parent="1">
          <mxGeometry x="157.6" y="40" width="102.4" height="100.4" as="geometry" />
        </mxCell>
        <mxCell id="QU5J7ZY1o8B-Ze7e18x7-12" style="edgeStyle=orthogonalEdgeStyle;rounded=0;orthogonalLoop=1;jettySize=auto;html=1;exitX=0.5;exitY=0;exitDx=0;exitDy=0;entryX=0.5;entryY=1;entryDx=0;entryDy=0;" edge="1" parent="1" source="QU5J7ZY1o8B-Ze7e18x7-9" target="QU5J7ZY1o8B-Ze7e18x7-5">
          <mxGeometry relative="1" as="geometry" />
        </mxCell>
        <mxCell id="QU5J7ZY1o8B-Ze7e18x7-13" value="commits and PRs" style="edgeLabel;html=1;align=center;verticalAlign=middle;resizable=0;points=[];" vertex="1" connectable="0" parent="QU5J7ZY1o8B-Ze7e18x7-12">
          <mxGeometry x="0.075" y="-2" relative="1" as="geometry">
            <mxPoint as="offset" />
          </mxGeometry>
        </mxCell>
        <mxCell id="QU5J7ZY1o8B-Ze7e18x7-46" style="edgeStyle=orthogonalEdgeStyle;rounded=0;orthogonalLoop=1;jettySize=auto;html=1;exitX=1;exitY=0.75;exitDx=0;exitDy=0;" edge="1" parent="1" source="QU5J7ZY1o8B-Ze7e18x7-9" target="QU5J7ZY1o8B-Ze7e18x7-29">
          <mxGeometry relative="1" as="geometry" />
        </mxCell>
        <mxCell id="QU5J7ZY1o8B-Ze7e18x7-47" style="edgeStyle=orthogonalEdgeStyle;rounded=0;orthogonalLoop=1;jettySize=auto;html=1;exitX=1;exitY=0.25;exitDx=0;exitDy=0;entryX=0;entryY=0.5;entryDx=0;entryDy=0;" edge="1" parent="1" source="QU5J7ZY1o8B-Ze7e18x7-9" target="QU5J7ZY1o8B-Ze7e18x7-35">
          <mxGeometry relative="1" as="geometry" />
        </mxCell>
        <mxCell id="QU5J7ZY1o8B-Ze7e18x7-72" style="edgeStyle=orthogonalEdgeStyle;rounded=0;orthogonalLoop=1;jettySize=auto;html=1;exitX=1;exitY=0;exitDx=0;exitDy=0;entryX=0.5;entryY=1;entryDx=0;entryDy=0;" edge="1" parent="1" source="QU5J7ZY1o8B-Ze7e18x7-9" target="QU5J7ZY1o8B-Ze7e18x7-14">
          <mxGeometry relative="1" as="geometry">
            <Array as="points">
              <mxPoint x="270" y="370" />
              <mxPoint x="270" y="200" />
              <mxPoint x="444" y="200" />
            </Array>
          </mxGeometry>
        </mxCell>
        <mxCell id="QU5J7ZY1o8B-Ze7e18x7-9" value="Dev Team" style="rounded=1;whiteSpace=wrap;html=1;" vertex="1" parent="1">
          <mxGeometry x="40.7" y="370" width="196.2" height="170" as="geometry" />
        </mxCell>
        <mxCell id="QU5J7ZY1o8B-Ze7e18x7-6" value="" style="verticalLabelPosition=bottom;html=1;verticalAlign=top;align=center;strokeColor=none;fillColor=#00BEF2;shape=mxgraph.azure.laptop;pointerEvents=1;" vertex="1" parent="1">
          <mxGeometry x="70" y="380" width="50" height="30" as="geometry" />
        </mxCell>
        <mxCell id="QU5J7ZY1o8B-Ze7e18x7-8" value="" style="image;points=[];aspect=fixed;html=1;align=center;shadow=0;dashed=0;image=img/lib/allied_telesis/computer_and_terminals/Personal_Computer.svg;" vertex="1" parent="1">
          <mxGeometry x="72.19999999999999" y="460" width="45.6" height="61.800000000000004" as="geometry" />
        </mxCell>
        <mxCell id="QU5J7ZY1o8B-Ze7e18x7-7" value="" style="image;points=[];aspect=fixed;html=1;align=center;shadow=0;dashed=0;image=img/lib/allied_telesis/computer_and_terminals/Personal_Computer_with_Server.svg;" vertex="1" parent="1">
          <mxGeometry x="170" y="450" width="62.400000000000006" height="62.400000000000006" as="geometry" />
        </mxCell>
        <mxCell id="QU5J7ZY1o8B-Ze7e18x7-17" style="edgeStyle=orthogonalEdgeStyle;rounded=0;orthogonalLoop=1;jettySize=auto;html=1;exitX=1;exitY=0.5;exitDx=0;exitDy=0;" edge="1" parent="1" source="QU5J7ZY1o8B-Ze7e18x7-14" target="QU5J7ZY1o8B-Ze7e18x7-3">
          <mxGeometry relative="1" as="geometry" />
        </mxCell>
        <mxCell id="QU5J7ZY1o8B-Ze7e18x7-19" value="auto-deploy&lt;div&gt;or&lt;/div&gt;&lt;div&gt;manual deploy&lt;/div&gt;" style="edgeLabel;html=1;align=center;verticalAlign=middle;resizable=0;points=[];" vertex="1" connectable="0" parent="QU5J7ZY1o8B-Ze7e18x7-17">
          <mxGeometry x="-0.3832" relative="1" as="geometry">
            <mxPoint as="offset" />
          </mxGeometry>
        </mxCell>
        <mxCell id="QU5J7ZY1o8B-Ze7e18x7-14" value="ARGO-CD" style="shape=rect;fillColor=#EE5396;aspect=fixed;resizable=0;labelPosition=center;verticalLabelPosition=bottom;align=center;verticalAlign=top;strokeColor=none;fontSize=14;" vertex="1" parent="1">
          <mxGeometry x="420" y="57.6" width="48" height="48" as="geometry" />
        </mxCell>
        <mxCell id="QU5J7ZY1o8B-Ze7e18x7-15" value="" style="fillColor=#ffffff;strokeColor=none;dashed=0;outlineConnect=0;html=1;labelPosition=center;verticalLabelPosition=bottom;verticalAlign=top;part=1;movable=0;resizable=0;rotatable=0;shape=mxgraph.ibm_cloud.continuous-integration" vertex="1" parent="QU5J7ZY1o8B-Ze7e18x7-14">
          <mxGeometry width="24" height="24" relative="1" as="geometry">
            <mxPoint x="12" y="12" as="offset" />
          </mxGeometry>
        </mxCell>
        <mxCell id="QU5J7ZY1o8B-Ze7e18x7-20" value="" style="shape=mxgraph.gcp2.doubleRect;strokeColor=#dddddd;shadow=1;strokeWidth=1;rounded=1;absoluteArcSize=1;arcSize=2;" vertex="1" parent="1">
          <mxGeometry x="440" y="490" width="128" height="68" as="geometry" />
        </mxCell>
        <mxCell id="QU5J7ZY1o8B-Ze7e18x7-21" value="&lt;font color=&quot;#000000&quot;&gt;LOKI&lt;/font&gt;&lt;div&gt;Logging&lt;/div&gt;" style="editableCssRules=.*;html=1;fontColor=#999999;shape=image;verticalLabelPosition=middle;verticalAlign=middle;labelPosition=right;align=left;spacingLeft=20;part=1;points=[];imageAspect=0;image=data:image/svg+xml,PHN2ZyB4bWxucz0iaHR0cDovL3d3dy53My5vcmcvMjAwMC9zdmciIHhtbG5zOnY9Imh0dHBzOi8vdmVjdGEuaW8vbmFubyIgd2lkdGg9IjIwIiBoZWlnaHQ9IjE5IiB2aWV3Qm94PSIwIDAgMjAgMTkiPiYjeGE7CTxzdHlsZSB0eXBlPSJ0ZXh0L2NzcyI+JiN4YTsJLnN0MHtmaWxsOiM0Mjg1ZjQ7fSYjeGE7CS5zdDF7ZmlsbDojNjY5ZGY2O30mI3hhOwkuc3Qye2ZpbGw6I2FlY2JmYTt9JiN4YTsJPC9zdHlsZT4mI3hhOwk8ZyBjbGFzcz0ic3QwIj4mI3hhOwkJPHBhdGggZD0iTTQgOWg0djJINHptLTIgN2g2djJIMnoiLz4mI3hhOwkJPHBhdGggZD0iTTQgNEgydjEyaDJ6Ii8+JiN4YTsJPC9nPiYjeGE7CTxwYXRoIGNsYXNzPSJzdDEiIGQ9Ik0yMCAxSDd2NGgxM3ptMCA3SDd2NGgxM3ptMCA3SDd2NGgxM3oiLz4mI3hhOwk8cGF0aCBjbGFzcz0ic3QyIiBkPSJNNiAwSDB2Nmg2eiIvPiYjeGE7PC9zdmc+;" vertex="1" parent="QU5J7ZY1o8B-Ze7e18x7-20">
          <mxGeometry width="30" height="28" relative="1" as="geometry">
            <mxPoint x="15" y="16" as="offset" />
          </mxGeometry>
        </mxCell>
        <mxCell id="QU5J7ZY1o8B-Ze7e18x7-22" value="AlertManager&amp;nbsp;" style="html=1;shadow=0;dashed=0;shape=mxgraph.bootstrap.rrect;rSize=5;strokeColor=none;strokeWidth=1;fillColor=#0085FC;fontColor=#FFFFFF;whiteSpace=wrap;align=left;verticalAlign=middle;spacingLeft=10;fontStyle=0;fontSize=14;" vertex="1" parent="1">
          <mxGeometry x="530" y="600" width="130" height="40" as="geometry" />
        </mxCell>
        <mxCell id="QU5J7ZY1o8B-Ze7e18x7-23" value="4" style="html=1;shadow=0;dashed=0;shape=mxgraph.bootstrap.rrect;rSize=5;strokeColor=none;strokeWidth=1;fillColor=#ffffff;fontColor=#000000;whiteSpace=wrap;align=center;verticalAlign=middle;fontSize=12;" vertex="1" parent="QU5J7ZY1o8B-Ze7e18x7-22">
          <mxGeometry x="1" y="0.5" width="20" height="20" relative="1" as="geometry">
            <mxPoint x="-30" y="-10" as="offset" />
          </mxGeometry>
        </mxCell>
        <mxCell id="QU5J7ZY1o8B-Ze7e18x7-25" value="" style="points=[];aspect=fixed;html=1;align=center;shadow=0;dashed=0;fillColor=#FF6A00;strokeColor=none;shape=mxgraph.alibaba_cloud.prometheus;" vertex="1" parent="1">
          <mxGeometry x="626.1" y="472.9" width="48.9" height="48.9" as="geometry" />
        </mxCell>
        <mxCell id="QU5J7ZY1o8B-Ze7e18x7-26" value="" style="image;aspect=fixed;html=1;points=[];align=center;fontSize=12;image=img/lib/azure2/other/Grafana.svg;" vertex="1" parent="1">
          <mxGeometry x="710" y="548" width="68" height="52.800000000000004" as="geometry" />
        </mxCell>
        <mxCell id="QU5J7ZY1o8B-Ze7e18x7-27" value="Prometheus" style="text;html=1;align=center;verticalAlign=middle;resizable=0;points=[];autosize=1;strokeColor=none;fillColor=none;" vertex="1" parent="1">
          <mxGeometry x="605" y="518" width="90" height="30" as="geometry" />
        </mxCell>
        <mxCell id="QU5J7ZY1o8B-Ze7e18x7-28" value="Grafana" style="text;html=1;align=center;verticalAlign=middle;resizable=0;points=[];autosize=1;strokeColor=none;fillColor=none;" vertex="1" parent="1">
          <mxGeometry x="708" y="600" width="70" height="30" as="geometry" />
        </mxCell>
        <mxCell id="QU5J7ZY1o8B-Ze7e18x7-29" value="" style="rounded=0;whiteSpace=wrap;html=1;fillColor=none;" vertex="1" parent="1">
          <mxGeometry x="420" y="440" width="380" height="240" as="geometry" />
        </mxCell>
        <mxCell id="QU5J7ZY1o8B-Ze7e18x7-30" value="OBSERVABILITY&lt;div&gt;&lt;br&gt;&lt;/div&gt;" style="text;html=1;align=center;verticalAlign=middle;resizable=0;points=[];autosize=1;strokeColor=none;fillColor=none;" vertex="1" parent="1">
          <mxGeometry x="552.5" y="440" width="120" height="40" as="geometry" />
        </mxCell>
        <mxCell id="QU5J7ZY1o8B-Ze7e18x7-31" value="" style="strokeColor=#dddddd;shadow=1;strokeWidth=1;rounded=1;absoluteArcSize=1;arcSize=2;" vertex="1" parent="1">
          <mxGeometry x="486" y="340" width="119" height="50" as="geometry" />
        </mxCell>
        <mxCell id="QU5J7ZY1o8B-Ze7e18x7-32" value="Game&lt;div&gt;Backed&lt;/div&gt;&lt;div&gt;Deployments&lt;/div&gt;" style="sketch=0;dashed=0;connectable=0;html=1;fillColor=#757575;strokeColor=none;shape=mxgraph.gcp2.dedicated_game_server;part=1;labelPosition=right;verticalLabelPosition=middle;align=left;verticalAlign=middle;spacingLeft=5;fontSize=12;" vertex="1" parent="QU5J7ZY1o8B-Ze7e18x7-31">
          <mxGeometry y="0.5" width="32" height="32" relative="1" as="geometry">
            <mxPoint x="5" y="-16" as="offset" />
          </mxGeometry>
        </mxCell>
        <mxCell id="QU5J7ZY1o8B-Ze7e18x7-35" value="" style="whiteSpace=wrap;html=1;fillColor=none;" vertex="1" parent="1">
          <mxGeometry x="400" y="210" width="240" height="200" as="geometry" />
        </mxCell>
        <mxCell id="QU5J7ZY1o8B-Ze7e18x7-36" value="" style="strokeColor=#dddddd;shadow=1;strokeWidth=1;rounded=1;absoluteArcSize=1;arcSize=2;" vertex="1" parent="1">
          <mxGeometry x="450" y="280" width="119" height="50" as="geometry" />
        </mxCell>
        <mxCell id="QU5J7ZY1o8B-Ze7e18x7-37" value="Game&lt;div&gt;Backed&lt;/div&gt;&lt;div&gt;Deployments&lt;/div&gt;" style="sketch=0;dashed=0;connectable=0;html=1;fillColor=#757575;strokeColor=none;shape=mxgraph.gcp2.dedicated_game_server;part=1;labelPosition=right;verticalLabelPosition=middle;align=left;verticalAlign=middle;spacingLeft=5;fontSize=12;" vertex="1" parent="QU5J7ZY1o8B-Ze7e18x7-36">
          <mxGeometry y="0.5" width="32" height="32" relative="1" as="geometry">
            <mxPoint x="5" y="-16" as="offset" />
          </mxGeometry>
        </mxCell>
        <mxCell id="QU5J7ZY1o8B-Ze7e18x7-38" value="" style="strokeColor=#dddddd;shadow=1;strokeWidth=1;rounded=1;absoluteArcSize=1;arcSize=2;" vertex="1" parent="1">
          <mxGeometry x="411" y="220" width="119" height="50" as="geometry" />
        </mxCell>
        <mxCell id="QU5J7ZY1o8B-Ze7e18x7-39" value="Game&lt;div&gt;Backed&lt;/div&gt;&lt;div&gt;Deployments&lt;/div&gt;" style="sketch=0;dashed=0;connectable=0;html=1;fillColor=#757575;strokeColor=none;shape=mxgraph.gcp2.dedicated_game_server;part=1;labelPosition=right;verticalLabelPosition=middle;align=left;verticalAlign=middle;spacingLeft=5;fontSize=12;" vertex="1" parent="QU5J7ZY1o8B-Ze7e18x7-38">
          <mxGeometry y="0.5" width="32" height="32" relative="1" as="geometry">
            <mxPoint x="5" y="-16" as="offset" />
          </mxGeometry>
        </mxCell>
        <mxCell id="QU5J7ZY1o8B-Ze7e18x7-43" style="edgeStyle=orthogonalEdgeStyle;rounded=0;orthogonalLoop=1;jettySize=auto;html=1;exitX=0.72;exitY=0.99;exitDx=0;exitDy=0;exitPerimeter=0;entryX=0.913;entryY=0.013;entryDx=0;entryDy=0;entryPerimeter=0;" edge="1" parent="1" source="QU5J7ZY1o8B-Ze7e18x7-3" target="QU5J7ZY1o8B-Ze7e18x7-29">
          <mxGeometry relative="1" as="geometry" />
        </mxCell>
        <mxCell id="QU5J7ZY1o8B-Ze7e18x7-48" value="DB" style="shape=datastore;whiteSpace=wrap;html=1;" vertex="1" parent="1">
          <mxGeometry x="600" y="274.99999999999994" width="120" height="60" as="geometry" />
        </mxCell>
        <mxCell id="QU5J7ZY1o8B-Ze7e18x7-50" value="Secrets Manager" style="shape=rect;fillColor=#FA4D56;aspect=fixed;resizable=0;labelPosition=center;verticalLabelPosition=bottom;align=center;verticalAlign=top;strokeColor=none;fontSize=14;" vertex="1" parent="1">
          <mxGeometry x="698.92" y="20" width="48" height="48" as="geometry" />
        </mxCell>
        <mxCell id="QU5J7ZY1o8B-Ze7e18x7-51" value="" style="fillColor=#ffffff;strokeColor=none;dashed=0;outlineConnect=0;html=1;labelPosition=center;verticalLabelPosition=bottom;verticalAlign=top;part=1;movable=0;resizable=0;rotatable=0;shape=mxgraph.ibm_cloud.ibm-cloud--secrets-manager" vertex="1" parent="QU5J7ZY1o8B-Ze7e18x7-50">
          <mxGeometry width="24" height="24" relative="1" as="geometry">
            <mxPoint x="12" y="12" as="offset" />
          </mxGeometry>
        </mxCell>
        <mxCell id="QU5J7ZY1o8B-Ze7e18x7-61" style="edgeStyle=orthogonalEdgeStyle;rounded=0;orthogonalLoop=1;jettySize=auto;html=1;exitX=0;exitY=0.5;exitDx=0;exitDy=0;entryX=0.25;entryY=0;entryDx=0;entryDy=0;" edge="1" parent="1" source="QU5J7ZY1o8B-Ze7e18x7-55" target="QU5J7ZY1o8B-Ze7e18x7-9">
          <mxGeometry relative="1" as="geometry">
            <Array as="points">
              <mxPoint x="70" y="-116" />
              <mxPoint x="70" y="330" />
              <mxPoint x="90" y="330" />
            </Array>
          </mxGeometry>
        </mxCell>
        <mxCell id="QU5J7ZY1o8B-Ze7e18x7-62" value="Puils" style="edgeLabel;html=1;align=center;verticalAlign=middle;resizable=0;points=[];" vertex="1" connectable="0" parent="QU5J7ZY1o8B-Ze7e18x7-61">
          <mxGeometry x="-0.1634" y="-4" relative="1" as="geometry">
            <mxPoint as="offset" />
          </mxGeometry>
        </mxCell>
        <mxCell id="QU5J7ZY1o8B-Ze7e18x7-55" value="" style="shape=image;html=1;verticalAlign=top;verticalLabelPosition=bottom;labelBackgroundColor=#ffffff;imageAspect=0;aspect=fixed;image=https://cdn1.iconfinder.com/data/icons/ionicons-fill-vol-2/512/logo-docker-128.png" vertex="1" parent="1">
          <mxGeometry x="117.80000000000001" y="-150" width="68" height="68" as="geometry" />
        </mxCell>
        <mxCell id="QU5J7ZY1o8B-Ze7e18x7-58" style="edgeStyle=orthogonalEdgeStyle;rounded=0;orthogonalLoop=1;jettySize=auto;html=1;exitX=1;exitY=0.5;exitDx=0;exitDy=0;entryX=0.1;entryY=0.2;entryDx=0;entryDy=0;entryPerimeter=0;" edge="1" parent="1" source="QU5J7ZY1o8B-Ze7e18x7-55" target="QU5J7ZY1o8B-Ze7e18x7-3">
          <mxGeometry relative="1" as="geometry" />
        </mxCell>
        <mxCell id="QU5J7ZY1o8B-Ze7e18x7-59" value="Image Pulls" style="edgeLabel;html=1;align=center;verticalAlign=middle;resizable=0;points=[];" vertex="1" connectable="0" parent="QU5J7ZY1o8B-Ze7e18x7-58">
          <mxGeometry x="-0.518" y="-2" relative="1" as="geometry">
            <mxPoint as="offset" />
          </mxGeometry>
        </mxCell>
        <mxCell id="QU5J7ZY1o8B-Ze7e18x7-64" value="Terraform" style="sketch=0;outlineConnect=0;fontColor=#232F3E;gradientColor=none;fillColor=#232F3D;strokeColor=none;dashed=0;verticalLabelPosition=bottom;verticalAlign=top;align=center;html=1;fontSize=12;fontStyle=0;aspect=fixed;pointerEvents=1;shape=mxgraph.aws4.source_code;" vertex="1" parent="1">
          <mxGeometry x="340" y="-82" width="40" height="54.73" as="geometry" />
        </mxCell>
        <mxCell id="QU5J7ZY1o8B-Ze7e18x7-68" style="edgeStyle=orthogonalEdgeStyle;rounded=0;orthogonalLoop=1;jettySize=auto;html=1;entryX=0.014;entryY=0.4;entryDx=0;entryDy=0;entryPerimeter=0;" edge="1" parent="1" source="QU5J7ZY1o8B-Ze7e18x7-64" target="QU5J7ZY1o8B-Ze7e18x7-3">
          <mxGeometry relative="1" as="geometry" />
        </mxCell>
        <mxCell id="QU5J7ZY1o8B-Ze7e18x7-69" value="IaC" style="edgeLabel;html=1;align=center;verticalAlign=middle;resizable=0;points=[];" vertex="1" connectable="0" parent="QU5J7ZY1o8B-Ze7e18x7-68">
          <mxGeometry x="-0.5935" y="-4" relative="1" as="geometry">
            <mxPoint as="offset" />
          </mxGeometry>
        </mxCell>
        <mxCell id="QU5J7ZY1o8B-Ze7e18x7-70" value="C# App" style="text;html=1;align=center;verticalAlign=middle;resizable=0;points=[];autosize=1;strokeColor=none;fillColor=none;" vertex="1" parent="1">
          <mxGeometry x="405" y="370" width="60" height="30" as="geometry" />
        </mxCell>
      </root>
    </mxGraphModel>
  </diagram>
</mxfile>
